# 3ds Max Wavefront OBJ Exporter v0.99 - (c)2007 guruware
# 创建的文件:12.04.2021 20:04:07

mtllib object5.mtl

#
# object Box001
#

v  -0.6319 0.0000 -0.9479
v  -0.6319 0.0000 -16.7457
v  11.3744 0.0000 -16.7457
v  11.3744 0.0000 -0.9479
v  -0.6319 6.3191 -0.9479
v  11.3744 6.3191 -0.9479
v  11.3744 6.3191 -16.7457
v  -0.6319 6.3191 -16.7457
# 8 vertices

vn -0.5774 -0.5774 0.5774
vn -0.5774 -0.5774 -0.5774
vn 0.5774 -0.5774 -0.5774
vn 0.5774 -0.5774 0.5774
vn -0.5774 0.5774 0.5774
vn 0.5774 0.5774 0.5774
vn 0.5774 0.5774 -0.5774
vn -0.5774 0.5774 -0.5774
# 8 vertex normals

vt 1.0000 0.0000 0.0000
vt 1.0000 1.0000 0.0000
vt 0.0000 1.0000 0.0000
vt 0.0000 0.0000 0.0000
# 4 texture coords

o Box001
g Box001
usemtl wire_228153184
s 2
f 1/1/1 2/2/2 3/3/3 4/4/4 
s 4
f 5/4/5 6/1/6 7/2/7 8/3/8 
s 8
f 1/4/1 4/1/4 6/2/6 5/3/5 
s 16
f 4/4/4 3/1/3 7/2/7 6/3/6 
s 32
f 3/4/3 2/1/2 8/2/8 7/3/7 
s 64
f 2/4/2 1/1/1 5/2/5 8/3/8 
# 6 polygons

#
# object Cylinder001
#

v  4.7349 3.2410 0.0000
v  6.0070 4.3085 0.0000
v  6.2954 3.8090 0.0000
v  6.3955 3.2410 0.0000
v  5.0232 4.8764 0.0000
v  5.5652 4.6792 0.0000
v  3.9045 4.6792 0.0000
v  4.4465 4.8764 0.0000
v  3.1744 3.8090 0.0000
v  3.4627 4.3085 0.0000
v  3.1744 2.6730 0.0000
v  3.0742 3.2410 0.0000
v  3.9045 1.8029 -0.0000
v  3.4627 2.1736 -0.0000
v  5.0232 1.6056 -0.0000
v  4.4465 1.6056 -0.0000
v  6.0070 2.1736 -0.0000
v  5.5652 1.8029 -0.0000
v  6.2954 2.6730 0.0000
v  6.2954 3.8090 2.3682
v  6.3955 3.2410 2.3682
v  6.0070 4.3085 2.3682
v  5.5652 4.6792 2.3682
v  5.0232 4.8764 2.3682
v  4.4465 4.8764 2.3682
v  3.9045 4.6792 2.3682
v  3.4627 4.3085 2.3682
v  3.1744 3.8090 2.3682
v  3.0742 3.2410 2.3682
v  3.1744 2.6730 2.3682
v  3.4627 2.1736 2.3682
v  3.9045 1.8029 2.3682
v  4.4465 1.6056 2.3682
v  5.0232 1.6056 2.3682
v  5.5652 1.8028 2.3682
v  6.0070 2.1736 2.3682
v  6.2954 2.6730 2.3682
v  6.2954 3.8090 4.7364
v  6.3955 3.2410 4.7364
v  6.0070 4.3085 4.7364
v  5.5652 4.6792 4.7364
v  5.0232 4.8764 4.7364
v  4.4465 4.8764 4.7364
v  3.9045 4.6792 4.7364
v  3.4627 4.3085 4.7364
v  3.1744 3.8090 4.7364
v  3.0742 3.2410 4.7364
v  3.1744 2.6730 4.7364
v  3.4627 2.1736 4.7364
v  3.9045 1.8029 4.7364
v  4.4465 1.6056 4.7364
v  5.0232 1.6056 4.7364
v  5.5652 1.8028 4.7364
v  6.0070 2.1736 4.7364
v  6.2954 2.6730 4.7364
v  6.2954 3.8090 7.1046
v  6.3955 3.2410 7.1046
v  6.0070 4.3085 7.1046
v  5.5652 4.6792 7.1046
v  5.0232 4.8764 7.1046
v  4.4465 4.8764 7.1046
v  3.9045 4.6792 7.1046
v  3.4627 4.3085 7.1046
v  3.1744 3.8090 7.1046
v  3.0742 3.2410 7.1046
v  3.1744 2.6730 7.1046
v  3.4627 2.1736 7.1046
v  3.9045 1.8028 7.1046
v  4.4465 1.6056 7.1046
v  5.0232 1.6056 7.1046
v  5.5652 1.8028 7.1046
v  6.0070 2.1736 7.1046
v  6.2954 2.6730 7.1046
v  6.2954 3.8090 9.4728
v  6.3955 3.2410 9.4728
v  6.0070 4.3085 9.4728
v  5.5652 4.6792 9.4728
v  5.0232 4.8764 9.4728
v  4.4465 4.8764 9.4728
v  3.9045 4.6792 9.4728
v  3.4627 4.3085 9.4728
v  3.1744 3.8090 9.4728
v  3.0742 3.2410 9.4728
v  3.1744 2.6730 9.4728
v  3.4627 2.1736 9.4728
v  3.9045 1.8028 9.4728
v  4.4465 1.6056 9.4728
v  5.0232 1.6056 9.4728
v  5.5652 1.8028 9.4728
v  6.0070 2.1736 9.4728
v  6.2954 2.6730 9.4728
v  6.2954 3.8090 11.8410
v  6.3955 3.2410 11.8410
v  6.0070 4.3085 11.8410
v  5.5652 4.6792 11.8410
v  5.0232 4.8764 11.8410
v  4.4465 4.8764 11.8410
v  3.9045 4.6792 11.8410
v  3.4627 4.3085 11.8410
v  3.1744 3.8090 11.8410
v  3.0742 3.2410 11.8410
v  3.1744 2.6730 11.8410
v  3.4627 2.1736 11.8410
v  3.9045 1.8028 11.8410
v  4.4465 1.6056 11.8410
v  5.0232 1.6056 11.8410
v  5.5652 1.8028 11.8410
v  6.0070 2.1736 11.8410
v  6.2954 2.6730 11.8410
v  4.7349 3.2410 11.8410
# 110 vertices

vn 0.0000 0.0000 -1.0000
vn 0.5687 0.4772 -0.6700
vn 0.6976 0.2539 -0.6700
vn 0.7424 0.0000 -0.6700
vn 0.1289 0.7311 -0.6700
vn 0.3712 0.6429 -0.6700
vn -0.3712 0.6429 -0.6700
vn -0.1289 0.7311 -0.6700
vn -0.6976 0.2539 -0.6700
vn -0.5687 0.4772 -0.6700
vn -0.6976 -0.2539 -0.6700
vn -0.7424 0.0000 -0.6700
vn -0.3712 -0.6429 -0.6700
vn -0.5687 -0.4772 -0.6700
vn 0.1289 -0.7311 -0.6700
vn -0.1289 -0.7311 -0.6700
vn 0.5687 -0.4772 -0.6700
vn 0.3712 -0.6429 -0.6700
vn 0.6976 -0.2539 -0.6700
vn 0.9397 0.3420 0.0000
vn 1.0000 -0.0000 -0.0000
vn 0.7660 0.6428 0.0000
vn 0.5000 0.8660 0.0000
vn 0.1736 0.9848 0.0000
vn -0.1736 0.9848 0.0000
vn -0.5000 0.8660 0.0000
vn -0.7660 0.6428 0.0000
vn -0.9397 0.3420 0.0000
vn -1.0000 -0.0000 -0.0000
vn -0.9397 -0.3420 -0.0000
vn -0.7660 -0.6428 -0.0000
vn -0.5000 -0.8660 -0.0000
vn -0.1736 -0.9848 -0.0000
vn 0.1736 -0.9848 -0.0000
vn 0.5000 -0.8660 -0.0000
vn 0.7660 -0.6428 -0.0000
vn 0.9397 -0.3420 -0.0000
vn 1.0000 -0.0000 0.0000
vn -1.0000 0.0000 0.0000
vn 0.6975 0.2539 0.6701
vn 0.7423 -0.0000 0.6701
vn 0.5687 0.4772 0.6700
vn 0.3712 0.6429 0.6700
vn 0.1289 0.7311 0.6700
vn -0.1289 0.7311 0.6700
vn -0.3712 0.6429 0.6700
vn -0.5687 0.4772 0.6700
vn -0.6975 0.2539 0.6701
vn -0.7423 -0.0000 0.6701
vn -0.6975 -0.2539 0.6701
vn -0.5686 -0.4772 0.6701
vn -0.3712 -0.6429 0.6700
vn -0.1289 -0.7311 0.6700
vn 0.1289 -0.7311 0.6700
vn 0.3712 -0.6429 0.6700
vn 0.5687 -0.4772 0.6700
vn 0.6976 -0.2539 0.6700
vn 0.0000 -0.0000 1.0000
# 58 vertex normals

vt 0.5000 0.0000 0.0000
vt 0.8611 0.0000 1.0000
vt 0.8056 0.0000 1.0000
vt 0.7500 0.0000 1.0000
vt 0.9722 0.0000 1.0000
vt 0.9167 0.0000 1.0000
vt 0.0833 0.0000 1.0000
vt 0.0278 0.0000 1.0000
vt -0.0278 0.0000 1.0000
vt 0.1944 0.0000 1.0000
vt 0.1389 0.0000 1.0000
vt 0.3056 0.0000 1.0000
vt 0.2500 0.0000 1.0000
vt 0.4167 0.0000 1.0000
vt 0.3611 0.0000 1.0000
vt 0.5278 0.0000 1.0000
vt 0.4722 0.0000 1.0000
vt 0.6389 0.0000 1.0000
vt 0.5833 0.0000 1.0000
vt 0.6944 0.0000 1.0000
vt 0.8056 0.2000 1.0000
vt 0.7500 0.2000 1.0000
vt 0.8611 0.2000 1.0000
vt 0.9167 0.2000 1.0000
vt 0.9722 0.2000 1.0000
vt 0.0278 0.2000 1.0000
vt -0.0278 0.2000 1.0000
vt 0.0833 0.2000 1.0000
vt 0.1389 0.2000 1.0000
vt 0.1944 0.2000 1.0000
vt 0.2500 0.2000 1.0000
vt 0.3056 0.2000 1.0000
vt 0.3611 0.2000 1.0000
vt 0.4167 0.2000 1.0000
vt 0.4722 0.2000 1.0000
vt 0.5278 0.2000 1.0000
vt 0.5833 0.2000 1.0000
vt 0.6389 0.2000 1.0000
vt 0.6944 0.2000 1.0000
vt 0.8056 0.4000 1.0000
vt 0.7500 0.4000 1.0000
vt 0.8611 0.4000 1.0000
vt 0.9167 0.4000 1.0000
vt 0.9722 0.4000 1.0000
vt 0.0278 0.4000 1.0000
vt -0.0278 0.4000 1.0000
vt 0.0833 0.4000 1.0000
vt 0.1389 0.4000 1.0000
vt 0.1944 0.4000 1.0000
vt 0.2500 0.4000 1.0000
vt 0.3056 0.4000 1.0000
vt 0.3611 0.4000 1.0000
vt 0.4167 0.4000 1.0000
vt 0.4722 0.4000 1.0000
vt 0.5278 0.4000 1.0000
vt 0.5833 0.4000 1.0000
vt 0.6389 0.4000 1.0000
vt 0.6944 0.4000 1.0000
vt 0.8056 0.6000 1.0000
vt 0.7500 0.6000 1.0000
vt 0.8611 0.6000 1.0000
vt 0.9167 0.6000 1.0000
vt 0.9722 0.6000 1.0000
vt 0.0278 0.6000 1.0000
vt -0.0278 0.6000 1.0000
vt 0.0833 0.6000 1.0000
vt 0.1389 0.6000 1.0000
vt 0.1944 0.6000 1.0000
vt 0.2500 0.6000 1.0000
vt 0.3056 0.6000 1.0000
vt 0.3611 0.6000 1.0000
vt 0.4167 0.6000 1.0000
vt 0.4722 0.6000 1.0000
vt 0.5278 0.6000 1.0000
vt 0.5833 0.6000 1.0000
vt 0.6389 0.6000 1.0000
vt 0.6944 0.6000 1.0000
vt 0.8056 0.8000 1.0000
vt 0.7500 0.8000 1.0000
vt 0.8611 0.8000 1.0000
vt 0.9167 0.8000 1.0000
vt 0.9722 0.8000 1.0000
vt 0.0278 0.8000 1.0000
vt -0.0278 0.8000 1.0000
vt 0.0833 0.8000 1.0000
vt 0.1389 0.8000 1.0000
vt 0.1944 0.8000 1.0000
vt 0.2500 0.8000 1.0000
vt 0.3056 0.8000 1.0000
vt 0.3611 0.8000 1.0000
vt 0.4167 0.8000 1.0000
vt 0.4722 0.8000 1.0000
vt 0.5278 0.8000 1.0000
vt 0.5833 0.8000 1.0000
vt 0.6389 0.8000 1.0000
vt 0.6944 0.8000 1.0000
vt 0.8056 1.0000 1.0000
vt 0.7500 1.0000 1.0000
vt 0.8611 1.0000 1.0000
vt 0.9167 1.0000 1.0000
vt 0.9722 1.0000 1.0000
vt 0.0278 1.0000 1.0000
vt -0.0278 1.0000 1.0000
vt 0.0833 1.0000 1.0000
vt 0.1389 1.0000 1.0000
vt 0.1944 1.0000 1.0000
vt 0.2500 1.0000 1.0000
vt 0.3056 1.0000 1.0000
vt 0.3611 1.0000 1.0000
vt 0.4167 1.0000 1.0000
vt 0.4722 1.0000 1.0000
vt 0.5278 1.0000 1.0000
vt 0.5833 1.0000 1.0000
vt 0.6389 1.0000 1.0000
vt 0.6944 1.0000 1.0000
vt 0.5000 1.0000 0.0000
vt 0.9708 1.0000 0.8794
# 117 texture coords

o Cylinder001
g Cylinder001
usemtl wire_153228184
s 1
f 9/5/9 10/6/10 11/7/11 12/8/12 
f 9/5/9 13/9/13 14/10/14 10/6/10 
f 9/5/9 15/11/15 16/12/16 13/13/13 
f 9/5/9 17/14/17 18/15/18 15/11/15 
f 9/5/9 19/16/19 20/17/20 17/14/17 
f 9/5/9 21/18/21 22/19/22 19/16/19 
f 9/5/9 23/20/23 24/21/24 21/18/21 
f 9/5/9 25/22/25 26/23/26 23/20/23 
f 9/5/9 12/8/12 27/24/27 25/22/25 
s 8
f 12/8/12 11/7/11 28/25/28 29/26/29 
f 11/7/11 10/6/10 30/27/30 28/25/28 
f 10/6/10 14/10/14 31/28/31 30/27/30 
f 14/10/14 13/9/13 32/29/32 31/28/31 
f 13/13/13 16/12/16 33/30/33 32/31/32 
f 16/12/16 15/11/15 34/32/34 33/30/33 
f 15/11/15 18/15/18 35/33/35 34/32/34 
f 18/15/18 17/14/17 36/34/36 35/33/35 
f 17/14/17 20/17/20 37/35/37 36/34/36 
f 20/17/20 19/16/19 38/36/38 37/35/37 
f 19/16/19 22/19/22 39/37/39 38/36/38 
f 22/19/22 21/18/21 40/38/40 39/37/39 
f 21/18/21 24/21/24 41/39/41 40/38/40 
f 24/21/24 23/20/23 42/40/42 41/39/41 
f 23/20/23 26/23/26 43/41/43 42/40/42 
f 26/23/26 25/22/25 44/42/44 43/41/43 
f 25/22/25 27/24/27 45/43/45 44/42/44 
f 27/24/27 12/8/12 29/26/29 45/43/45 
f 29/26/29 28/25/28 46/44/28 47/45/46 
f 28/25/28 30/27/30 48/46/30 46/44/28 
f 30/27/30 31/28/31 49/47/31 48/46/30 
f 31/28/31 32/29/32 50/48/32 49/47/31 
f 32/31/32 33/30/33 51/49/33 50/50/32 
f 33/30/33 34/32/34 52/51/34 51/49/33 
f 34/32/34 35/33/35 53/52/35 52/51/34 
f 35/33/35 36/34/36 54/53/36 53/52/35 
f 36/34/36 37/35/37 55/54/47 54/53/36 
f 37/35/37 38/36/38 56/55/38 55/54/47 
f 38/36/38 39/37/39 57/56/39 56/55/38 
f 39/37/39 40/38/40 58/57/40 57/56/39 
f 40/38/40 41/39/41 59/58/41 58/57/40 
f 41/39/41 42/40/42 60/59/42 59/58/41 
f 42/40/42 43/41/43 61/60/43 60/59/42 
f 43/41/43 44/42/44 62/61/44 61/60/43 
f 44/42/44 45/43/45 63/62/45 62/61/44 
f 45/43/45 29/26/29 47/45/46 63/62/45 
f 47/45/46 46/44/28 64/63/28 65/64/29 
f 46/44/28 48/46/30 66/65/30 64/63/28 
f 48/46/30 49/47/31 67/66/31 66/65/30 
f 49/47/31 50/48/32 68/67/32 67/66/31 
f 50/50/32 51/49/33 69/68/33 68/69/32 
f 51/49/33 52/51/34 70/70/34 69/68/33 
f 52/51/34 53/52/35 71/71/35 70/70/34 
f 53/52/35 54/53/36 72/72/36 71/71/35 
f 54/53/36 55/54/47 73/73/37 72/72/36 
f 55/54/47 56/55/38 74/74/38 73/73/37 
f 56/55/38 57/56/39 75/75/39 74/74/38 
f 57/56/39 58/57/40 76/76/40 75/75/39 
f 58/57/40 59/58/41 77/77/41 76/76/40 
f 59/58/41 60/59/42 78/78/42 77/77/41 
f 60/59/42 61/60/43 79/79/43 78/78/42 
f 61/60/43 62/61/44 80/80/44 79/79/43 
f 62/61/44 63/62/45 81/81/45 80/80/44 
f 63/62/45 47/45/46 65/64/29 81/81/45 
f 65/64/29 64/63/28 82/82/28 83/83/29 
f 64/63/28 66/65/30 84/84/30 82/82/28 
f 66/65/30 67/66/31 85/85/31 84/84/30 
f 67/66/31 68/67/32 86/86/32 85/85/31 
f 68/69/32 69/68/33 87/87/33 86/88/32 
f 69/68/33 70/70/34 88/89/34 87/87/33 
f 70/70/34 71/71/35 89/90/35 88/89/34 
f 71/71/35 72/72/36 90/91/36 89/90/35 
f 72/72/36 73/73/37 91/92/37 90/91/36 
f 73/73/37 74/74/38 92/93/38 91/92/37 
f 74/74/38 75/75/39 93/94/39 92/93/38 
f 75/75/39 76/76/40 94/95/40 93/94/39 
f 76/76/40 77/77/41 95/96/41 94/95/40 
f 77/77/41 78/78/42 96/97/42 95/96/41 
f 78/78/42 79/79/43 97/98/43 96/97/42 
f 79/79/43 80/80/44 98/99/44 97/98/43 
f 80/80/44 81/81/45 99/100/45 98/99/44 
f 81/81/45 65/64/29 83/83/29 99/100/45 
f 83/83/29 82/82/28 100/101/48 101/102/49 
f 82/82/28 84/84/30 102/103/50 100/101/48 
f 84/84/30 85/85/31 103/104/51 102/103/50 
f 85/85/31 86/86/32 104/105/52 103/104/51 
f 86/88/32 87/87/33 105/106/53 104/107/52 
f 87/87/33 88/89/34 106/108/54 105/106/53 
f 88/89/34 89/90/35 107/109/55 106/108/54 
f 89/90/35 90/91/36 108/110/56 107/109/55 
f 90/91/36 91/92/37 109/111/57 108/110/56 
f 91/92/37 92/93/38 110/112/58 109/111/57 
f 92/93/38 93/94/39 111/113/59 110/112/58 
f 93/94/39 94/95/40 112/114/60 111/113/59 
f 94/95/40 95/96/41 113/115/61 112/114/60 
f 95/96/41 96/97/42 114/116/62 113/115/61 
f 96/97/42 97/98/43 115/117/63 114/116/62 
f 97/98/43 98/99/44 116/118/64 115/117/63 
f 98/99/44 99/100/45 117/119/65 116/118/64 
f 99/100/45 83/83/29 101/102/49 117/119/65 
s 1
f 118/120/66 117/119/65 101/102/49 100/101/48 
f 118/120/66 100/101/48 102/103/50 103/104/51 
f 118/120/66 103/104/51 104/105/52 105/121/53 
f 118/120/66 105/106/53 106/108/54 107/109/55 
f 118/120/66 107/109/55 108/110/56 109/111/57 
f 118/120/66 109/111/57 110/112/58 111/113/59 
f 118/120/66 111/113/59 112/114/60 113/115/61 
f 118/120/66 113/115/61 114/116/62 115/117/63 
f 118/120/66 115/117/63 116/118/64 117/119/65 
# 108 polygons

