g ____01
v -0.005 0.005 0.01 0.698039 0.466667 0.835294
vn 0.57735 0.57735 0.57735
vt 0 0.499992
v 0.005 -0.005 0.01 0.698039 0.466667 0.835294
vn 0.57735 0.57735 0.57735
vt 1 0
v 0.005 0.005 4.33681e-19 0.698039 0.466667 0.835294
vn 0.57735 0.57735 0.57735
vt 1 1
v -0.005 -0.005 0 0.698039 0.466667 0.835294
vn -0.57735 -0.57735 0.57735
vt 1 1
v 0.005 -0.005 0.01 0.698039 0.466667 0.835294
vn -0.57735 -0.57735 0.57735
vt 0 0.499992
v -0.005 0.005 0.01 0.698039 0.466667 0.835294
vn -0.57735 -0.57735 0.57735
vt 1 0
v -0.005 0.005 0.01 0.698039 0.466667 0.835294
vn -0.57735 0.57735 -0.57735
vt 1 0
v 0.005 0.005 4.33681e-19 0.698039 0.466667 0.835294
vn -0.57735 0.57735 -0.57735
vt 1 1
v -0.005 -0.005 0 0.698039 0.466667 0.835294
vn -0.57735 0.57735 -0.57735
vt 0 0.499992
v -0.005 -0.005 0 0.698039 0.466667 0.835294
vn 0.57735 -0.57735 -0.57735
vt 0 1
v 0.005 0.005 4.33681e-19 0.698039 0.466667 0.835294
vn 0.57735 -0.57735 -0.57735
vt 0.499992 0
v 0.005 -0.005 0.01 0.698039 0.466667 0.835294
vn 0.57735 -0.57735 -0.57735
vt 1 1
f 1/1/1 2/2/2 3/3/3
f 4/4/4 5/5/5 6/6/6
f 7/7/7 8/8/8 9/9/9
f 10/10/10 11/11/11 12/12/12
