g ____01
v -0.105 -0.1485 0.0104
v -0.105 -0.1485 0
v 0.105 -0.1485 0
v 0.105 -0.1485 0.0104
v 0.105 0.1485 0
v 0.105 0.1485 0.0104
v -0.105 0.1485 0
v -0.105 0.1485 0.0104
vn 2.64339e-16 -1 -0
vn 1 4.20539e-16 -0
vn -1.32169e-16 1 -0
vn -1 -5.60719e-16 0
vn 0 0 1
vn -0 -0 -1
vt 0.105 0.0103
vt 0.105 -0.0001
vt -0.105 -0.0001
vt -0.105 0.0103
vt 0.1485 0.0103
vt 0.1485 -0.0001
vt -0.1485 -0.0001
vt -0.1485 0.0103
vt 0.105 0.0103
vt 0.105 -0.0001
vt -0.105 -0.0001
vt -0.105 0.0103
vt 0.1485 0.0103
vt 0.1485 -0.0001
vt -0.1485 -0.0001
vt -0.1485 0.0103
vt -0.105 0.1485
vt -0.105 -0.1485
vt 0.105 -0.1485
vt 0.105 0.1485
vt 0.105 0.1485
vt 0.105 -0.1485
vt -0.105 -0.1485
vt -0.105 0.1485
f 1/1/1 2/2/1 3/3/1
f 3/3/1 4/4/1 1/1/1
f 4/5/2 3/6/2 5/7/2
f 5/7/2 6/8/2 4/5/2
f 6/9/3 5/10/3 7/11/3
f 7/11/3 8/12/3 6/9/3
f 8/13/4 7/14/4 2/15/4
f 2/15/4 1/16/4 8/13/4
f 8/17/5 1/18/5 4/19/5
f 4/19/5 6/20/5 8/17/5
f 5/21/6 3/22/6 2/23/6
f 2/23/6 7/24/6 5/21/6
